<svg xmlns="http://www.w3.org/2000/svg" width="35" height="24" viewBox="0 0 35 24">
  <g id="_9034890_filter_icon" data-name="9034890_filter_icon" transform="translate(-14.268 -118.765)">
    <path id="Path_5687" data-name="Path 5687" d="M49.25,123.388H17.75a1.695,1.695,0,1,1,0-3.388h31.5a1.695,1.695,0,1,1,0,3.388Z" transform="translate(-1.732 -1.235)" fill="#303f9f"/>
    <path id="Path_5688" data-name="Path 5688" d="M114.836,235.388H97.527a1.7,1.7,0,0,1,0-3.388h17.308a1.7,1.7,0,0,1,0,3.388Z" transform="translate(-74.732 -102.928)" fill="#303f9f"/>
    <path id="Path_5689" data-name="Path 5689" d="M200.125,347.388h-6.25a1.7,1.7,0,1,1,0-3.388h6.25a1.7,1.7,0,1,1,0,3.388Z" transform="translate(-164.732 -204.622)" fill="#303f9f"/>
  </g>
</svg>
