<svg xmlns="http://www.w3.org/2000/svg" width="16" height="16" viewBox="0 0 16 16">
  <g id="Group_518" data-name="Group 518" transform="translate(-10102 -2043)">
    <circle id="Ellipse_81" data-name="Ellipse 81" cx="8" cy="8" r="8" transform="translate(10102 2043)" fill="#fff"/>
    <g id="_8675092_ic_fluent_person_clock_regular_icon" data-name="8675092_ic_fluent_person_clock_regular_icon" transform="translate(10103.996 2044.995)">
      <path id="Path_5547" data-name="Path 5547" d="M5.722,14.6a2.585,2.585,0,0,1,.283-.6H2.9a.9.9,0,0,0-.9.9v.231a1.5,1.5,0,0,0,.359.973A3.531,3.531,0,0,0,5.2,17.2a5.291,5.291,0,0,0,1.035-.1,2.6,2.6,0,0,1-.365-.546,5.042,5.042,0,0,1-.67.042,2.955,2.955,0,0,1-2.379-.884.9.9,0,0,1-.215-.584V14.9a.3.3,0,0,1,.3-.3Z" transform="translate(0 -7.59)" fill="#1a237e"/>
      <path id="Path_5548" data-name="Path 5548" d="M7,2A2,2,0,1,1,5,4,2,2,0,0,1,7,2Zm0,.6A1.4,1.4,0,1,0,8.4,4,1.4,1.4,0,0,0,7,2.6Z" transform="translate(-1.8)" fill="#1a237e"/>
      <path id="Path_5549" data-name="Path 5549" d="M14.2,12A2.2,2.2,0,1,1,12,14.2,2.2,2.2,0,0,1,14.2,12Zm.8,2.2h-.8v-1a.2.2,0,1,0-.4,0v1.2h0a.2.2,0,0,0,.2.2h1a.2.2,0,1,0,0-.4Z" transform="translate(-6.39 -6.389)" fill="#1a237e"/>
    </g>
  </g>
</svg>
