<svg xmlns="http://www.w3.org/2000/svg" width="40" height="40" viewBox="0 0 40 40">
  <g id="_4265044_community_conversation_friends_group_people_icon_1_" data-name="4265044_community_conversation_friends_group_people_icon (1)" transform="translate(0 -28.06)">
    <ellipse id="Ellipse_82" data-name="Ellipse 82" cx="4.177" cy="7.322" rx="4.177" ry="7.322" transform="translate(27.456 34.667)" fill="#707070"/>
    <ellipse id="Ellipse_83" data-name="Ellipse 83" cx="4.177" cy="7.322" rx="4.177" ry="7.322" transform="translate(4.19 34.667)" fill="#707070"/>
    <path id="Path_5551" data-name="Path 5551" d="M30.015,72.633h0q-.131.344-.256.7h0A33.71,33.71,0,0,0,28,84.348H49.978a33.737,33.737,0,0,0-1.743-10.965h0q-.125-.355-.256-.7h0C45.919,67.3,42.573,64.1,39,64.1s-6.915,3.2-8.974,8.587Z" transform="translate(-18.989 -16.288)" fill="#707070"/>
    <path id="Path_5552" data-name="Path 5552" d="M0,80.668H6.675A32.9,32.9,0,0,1,11.09,66.8c-2.556-1.542-5.38-.824-7.581,1.928S0,75.929,0,80.668Z" transform="translate(0 -17.12)" fill="#707070"/>
    <ellipse id="Ellipse_84" data-name="Ellipse 84" cx="5.783" cy="10.136" rx="5.783" ry="10.136" transform="translate(14.217 28.06)" fill="#707070"/>
    <path id="Path_5553" data-name="Path 5553" d="M96.263,66a5.245,5.245,0,0,0-2.723.8,32.9,32.9,0,0,1,4.415,13.865h6.675C104.63,72.566,100.884,66,96.263,66Z" transform="translate(-64.63 -17.118)" fill="#707070"/>
  </g>
</svg>
