<svg id="_2190989_user_circle_male_avatar_account_icon" data-name="2190989_user_circle_male_avatar_account_icon" xmlns="http://www.w3.org/2000/svg" width="16" height="16" viewBox="0 0 16 16">
  <circle id="Ellipse_85" data-name="Ellipse 85" cx="8" cy="8" r="8" fill="#707070"/>
  <path id="Path_5554" data-name="Path 5554" d="M32.725,29.932a.447.447,0,0,1-.386-.451V28.81a1.721,1.721,0,0,0,.432-1.006l.023-.37a.726.726,0,0,0,.307-.439c.08-.289.011-.543-.17-.567h-.08l.045-.682A1.58,1.58,0,0,0,31.351,24h-.284A1.611,1.611,0,0,0,29.5,25.746l.045.694a.142.142,0,0,0-.068-.012c-.182.023-.25.278-.17.567a.731.731,0,0,0,.318.451l.023.358a1.642,1.642,0,0,0,.42,1.006v.671a.447.447,0,0,1-.386.451c-1,.173-2.681.913-2.681,1.7V33.25h8.406V31.631C35.406,30.845,33.725,30.1,32.725,29.932Z" transform="translate(-23.203 -20.625)" fill="#e8eaf6"/>
</svg>
